<?xml version="1.0" standalone="no"?>
<!DOCTYPE svg PUBLIC "-//W3C//DTD SVG 20010904//EN"
 "http://www.w3.org/TR/2001/REC-SVG-20010904/DTD/svg10.dtd">
<svg version="1.0" xmlns="http://www.w3.org/2000/svg"
 width="700.000000pt" height="700.000000pt" viewBox="0 0 700.000000 700.000000"
 preserveAspectRatio="xMidYMid meet">
<metadata>
Created by potrace 1.14, written by Peter Selinger 2001-2017
</metadata>
<g transform="translate(0.000000,700.000000) scale(0.100000,-0.100000)"
fill="#000000" stroke="none">
<path d="M2918 5806 c-101 -36 -155 -71 -178 -115 -23 -46 -104 -107 -270
-205 -163 -97 -225 -143 -306 -229 -81 -85 -138 -188 -155 -279 -20 -113 23
-233 116 -323 57 -55 180 -133 226 -142 34 -6 35 -1 18 76 -14 67 6 146 68
270 52 103 143 211 180 211 26 0 29 -20 44 -275 16 -265 25 -3065 10 -3065 -7
0 -77 11 -157 25 -169 29 -236 32 -254 10 -19 -22 -6 -109 24 -159 27 -46 81
-88 174 -135 127 -64 172 -128 172 -245 0 -37 4 -48 25 -62 22 -14 31 -14 97
-1 86 18 189 54 310 109 124 55 219 77 394 88 266 17 454 70 658 186 296 169
473 387 552 679 36 134 44 347 19 480 -50 269 -189 458 -427 579 -62 32 -124
68 -137 81 l-23 23 43 29 c24 17 98 61 164 98 180 102 260 160 367 267 157
158 266 339 320 536 30 108 32 402 4 507 -133 494 -579 772 -1336 835 -186 16
-343 38 -413 60 -48 15 -72 30 -105 65 -41 43 -44 45 -100 45 -34 0 -84 -10
-124 -24z m657 -596 c237 -38 388 -87 543 -177 231 -135 312 -285 316 -583 1
-110 -2 -144 -18 -185 -64 -171 -311 -431 -568 -599 -173 -113 -442 -216 -563
-216 -146 0 -165 94 -165 815 0 569 16 902 44 941 27 36 193 38 411 4z m-32
-2040 c76 -17 174 -44 217 -61 215 -82 374 -251 425 -449 21 -82 21 -234 0
-315 -65 -250 -279 -489 -525 -589 -151 -62 -256 -88 -354 -90 l-89 -1 -8 29
c-16 58 -29 341 -35 736 -9 572 7 727 75 766 36 20 123 13 294 -26z"/>
</g>
</svg>
